<mxfile host="app.diagrams.net" modified="2022-03-03T05:26:49.381Z" agent="5.0 (Macintosh; Intel Mac OS X 10_15_7) AppleWebKit/537.36 (KHTML, like Gecko) Chrome/98.0.4758.109 Safari/537.36" etag="r3PXzlys-BdB_rrcRdNK" version="16.6.5" type="github">
  <diagram id="C5RBs43oDa-KdzZeNtuy" name="Page-1">
    <mxGraphModel dx="503" dy="376" grid="1" gridSize="10" guides="1" tooltips="1" connect="1" arrows="1" fold="1" page="1" pageScale="1" pageWidth="827" pageHeight="1169" math="0" shadow="0">
      <root>
        <mxCell id="WIyWlLk6GJQsqaUBKTNV-0" />
        <mxCell id="WIyWlLk6GJQsqaUBKTNV-1" parent="WIyWlLk6GJQsqaUBKTNV-0" />
        <mxCell id="dpBe5lCmCPzWkpbeRBjQ-1" value="" style="edgeStyle=orthogonalEdgeStyle;rounded=0;orthogonalLoop=1;jettySize=auto;html=1;entryX=0.5;entryY=0;entryDx=0;entryDy=0;" edge="1" parent="WIyWlLk6GJQsqaUBKTNV-1" source="WIyWlLk6GJQsqaUBKTNV-3" target="dpBe5lCmCPzWkpbeRBjQ-21">
          <mxGeometry relative="1" as="geometry">
            <mxPoint x="220" y="160" as="targetPoint" />
          </mxGeometry>
        </mxCell>
        <mxCell id="dpBe5lCmCPzWkpbeRBjQ-29" value="" style="edgeStyle=orthogonalEdgeStyle;rounded=0;orthogonalLoop=1;jettySize=auto;html=1;" edge="1" parent="WIyWlLk6GJQsqaUBKTNV-1" source="WIyWlLk6GJQsqaUBKTNV-3" target="dpBe5lCmCPzWkpbeRBjQ-28">
          <mxGeometry relative="1" as="geometry" />
        </mxCell>
        <mxCell id="dpBe5lCmCPzWkpbeRBjQ-31" value="" style="edgeStyle=orthogonalEdgeStyle;rounded=0;orthogonalLoop=1;jettySize=auto;html=1;" edge="1" parent="WIyWlLk6GJQsqaUBKTNV-1" source="WIyWlLk6GJQsqaUBKTNV-3" target="dpBe5lCmCPzWkpbeRBjQ-30">
          <mxGeometry relative="1" as="geometry" />
        </mxCell>
        <mxCell id="WIyWlLk6GJQsqaUBKTNV-3" value="Presentation" style="rounded=1;whiteSpace=wrap;html=1;fontSize=12;glass=0;strokeWidth=1;shadow=0;" parent="WIyWlLk6GJQsqaUBKTNV-1" vertex="1">
          <mxGeometry x="160" y="80" width="120" height="40" as="geometry" />
        </mxCell>
        <mxCell id="dpBe5lCmCPzWkpbeRBjQ-20" value="" style="edgeStyle=orthogonalEdgeStyle;rounded=0;orthogonalLoop=1;jettySize=auto;html=1;exitX=0.5;exitY=1;exitDx=0;exitDy=0;" edge="1" parent="WIyWlLk6GJQsqaUBKTNV-1" source="dpBe5lCmCPzWkpbeRBjQ-21" target="dpBe5lCmCPzWkpbeRBjQ-19">
          <mxGeometry relative="1" as="geometry">
            <mxPoint x="220" y="320" as="sourcePoint" />
          </mxGeometry>
        </mxCell>
        <mxCell id="dpBe5lCmCPzWkpbeRBjQ-43" value="" style="edgeStyle=orthogonalEdgeStyle;rounded=0;orthogonalLoop=1;jettySize=auto;html=1;" edge="1" parent="WIyWlLk6GJQsqaUBKTNV-1" source="dpBe5lCmCPzWkpbeRBjQ-19" target="dpBe5lCmCPzWkpbeRBjQ-42">
          <mxGeometry relative="1" as="geometry" />
        </mxCell>
        <mxCell id="dpBe5lCmCPzWkpbeRBjQ-45" value="" style="edgeStyle=orthogonalEdgeStyle;rounded=0;orthogonalLoop=1;jettySize=auto;html=1;" edge="1" parent="WIyWlLk6GJQsqaUBKTNV-1" source="dpBe5lCmCPzWkpbeRBjQ-19" target="dpBe5lCmCPzWkpbeRBjQ-44">
          <mxGeometry relative="1" as="geometry" />
        </mxCell>
        <mxCell id="dpBe5lCmCPzWkpbeRBjQ-49" value="" style="edgeStyle=orthogonalEdgeStyle;rounded=0;orthogonalLoop=1;jettySize=auto;html=1;" edge="1" parent="WIyWlLk6GJQsqaUBKTNV-1" source="dpBe5lCmCPzWkpbeRBjQ-19" target="dpBe5lCmCPzWkpbeRBjQ-48">
          <mxGeometry relative="1" as="geometry" />
        </mxCell>
        <mxCell id="dpBe5lCmCPzWkpbeRBjQ-19" value="Data" style="whiteSpace=wrap;html=1;rounded=1;glass=0;strokeWidth=1;shadow=0;" vertex="1" parent="WIyWlLk6GJQsqaUBKTNV-1">
          <mxGeometry x="160" y="290" width="120" height="40" as="geometry" />
        </mxCell>
        <mxCell id="dpBe5lCmCPzWkpbeRBjQ-37" value="" style="edgeStyle=orthogonalEdgeStyle;rounded=0;orthogonalLoop=1;jettySize=auto;html=1;" edge="1" parent="WIyWlLk6GJQsqaUBKTNV-1" source="dpBe5lCmCPzWkpbeRBjQ-21" target="dpBe5lCmCPzWkpbeRBjQ-36">
          <mxGeometry relative="1" as="geometry" />
        </mxCell>
        <mxCell id="dpBe5lCmCPzWkpbeRBjQ-39" value="" style="edgeStyle=orthogonalEdgeStyle;rounded=0;orthogonalLoop=1;jettySize=auto;html=1;" edge="1" parent="WIyWlLk6GJQsqaUBKTNV-1" source="dpBe5lCmCPzWkpbeRBjQ-21" target="dpBe5lCmCPzWkpbeRBjQ-38">
          <mxGeometry relative="1" as="geometry" />
        </mxCell>
        <mxCell id="dpBe5lCmCPzWkpbeRBjQ-56" value="" style="edgeStyle=orthogonalEdgeStyle;rounded=0;orthogonalLoop=1;jettySize=auto;html=1;" edge="1" parent="WIyWlLk6GJQsqaUBKTNV-1" source="dpBe5lCmCPzWkpbeRBjQ-21" target="dpBe5lCmCPzWkpbeRBjQ-55">
          <mxGeometry relative="1" as="geometry" />
        </mxCell>
        <mxCell id="dpBe5lCmCPzWkpbeRBjQ-21" value="Domain" style="rounded=1;whiteSpace=wrap;html=1;" vertex="1" parent="WIyWlLk6GJQsqaUBKTNV-1">
          <mxGeometry x="160" y="180" width="120" height="40" as="geometry" />
        </mxCell>
        <mxCell id="dpBe5lCmCPzWkpbeRBjQ-28" value="Pages/Views" style="ellipse;whiteSpace=wrap;html=1;rounded=1;glass=0;strokeWidth=1;shadow=0;" vertex="1" parent="WIyWlLk6GJQsqaUBKTNV-1">
          <mxGeometry x="330" y="50" width="120" height="40" as="geometry" />
        </mxCell>
        <mxCell id="dpBe5lCmCPzWkpbeRBjQ-30" value="Controllers" style="ellipse;whiteSpace=wrap;html=1;rounded=1;glass=0;strokeWidth=1;shadow=0;" vertex="1" parent="WIyWlLk6GJQsqaUBKTNV-1">
          <mxGeometry x="330" y="110" width="120" height="40" as="geometry" />
        </mxCell>
        <mxCell id="dpBe5lCmCPzWkpbeRBjQ-36" value="Use cases" style="ellipse;whiteSpace=wrap;html=1;rounded=1;" vertex="1" parent="WIyWlLk6GJQsqaUBKTNV-1">
          <mxGeometry x="290" y="230" width="90" height="30" as="geometry" />
        </mxCell>
        <mxCell id="dpBe5lCmCPzWkpbeRBjQ-38" value="Entities" style="ellipse;whiteSpace=wrap;html=1;rounded=1;" vertex="1" parent="WIyWlLk6GJQsqaUBKTNV-1">
          <mxGeometry x="320" y="160" width="90" height="30" as="geometry" />
        </mxCell>
        <mxCell id="dpBe5lCmCPzWkpbeRBjQ-42" value="Repositories" style="ellipse;whiteSpace=wrap;html=1;rounded=1;glass=0;strokeWidth=1;shadow=0;" vertex="1" parent="WIyWlLk6GJQsqaUBKTNV-1">
          <mxGeometry x="314" y="270" width="100" height="30" as="geometry" />
        </mxCell>
        <mxCell id="dpBe5lCmCPzWkpbeRBjQ-44" value="Client/Api" style="ellipse;whiteSpace=wrap;html=1;rounded=1;glass=0;strokeWidth=1;shadow=0;" vertex="1" parent="WIyWlLk6GJQsqaUBKTNV-1">
          <mxGeometry x="290" y="340" width="100" height="30" as="geometry" />
        </mxCell>
        <mxCell id="dpBe5lCmCPzWkpbeRBjQ-48" value="Models" style="ellipse;whiteSpace=wrap;html=1;rounded=1;glass=0;strokeWidth=1;shadow=0;" vertex="1" parent="WIyWlLk6GJQsqaUBKTNV-1">
          <mxGeometry x="400" y="310" width="100" height="30" as="geometry" />
        </mxCell>
        <mxCell id="dpBe5lCmCPzWkpbeRBjQ-50" value="Core" style="whiteSpace=wrap;html=1;aspect=fixed;" vertex="1" parent="WIyWlLk6GJQsqaUBKTNV-1">
          <mxGeometry x="10" y="160" width="80" height="80" as="geometry" />
        </mxCell>
        <mxCell id="dpBe5lCmCPzWkpbeRBjQ-55" value="Repositories" style="ellipse;whiteSpace=wrap;html=1;rounded=1;" vertex="1" parent="WIyWlLk6GJQsqaUBKTNV-1">
          <mxGeometry x="390" y="200" width="100" height="30" as="geometry" />
        </mxCell>
      </root>
    </mxGraphModel>
  </diagram>
</mxfile>
